<svg xmlns="http://www.w3.org/2000/svg" width="150" height="30" viewBox="0 0 560 98.625">
  <path class="cls-1" fill="#fce200" fill-rule="evenodd" d="M733.49,303.315h-0.118l-10.894-31.537h-12.2l-10.893,31.537H699.27l-9.118-31.537H677.306L691.219,314.7h15.1l10.006-28.338h0.119l10,28.338h15.093l13.916-42.919H742.607ZM895.735,314.7h13.143V282.446h18.469v-9.121l22.428,26.434V314.7h13.143V299.759l23.738-27.981H970.79l-14.445,17.545L941.9,271.778h-64.64v10.668h18.472V314.7ZM624,282.446h18.469V314.7h13.143V282.446h18.469V271.778H624v10.668ZM872.906,314.7V271.778H859.765v31.18h-0.118l-24.689-31.18H814.593V314.7h13.144V283.514h0.119L852.541,314.7h20.365ZM1184,281.735v-9.957h-47.66V314.7H1184V304.383h-34.51v-6.877H1184v-8.894h-34.51v-6.877H1184Zm-68.4,21.223h-0.12l-24.69-31.18h-20.37V314.7h13.15V283.514h0.12l24.68,31.183h20.37V271.778H1115.6v31.18Zm-54.54-32.781-3.97,2.9c-3.08-1.3-6.98-1.779-11.66-1.779h-21.08c-11.84,0-18.88,2.964-18.88,15.533V299.64c0,4.386.83,7.588,2.49,9.84l-3.08,2.253,3.85,4.565,3.96-2.964c3.02,1.363,6.99,1.836,11.66,1.836h21.08c11.84,0,18.89-2.964,18.89-15.53V286.835c0-4.329-.83-7.529-2.43-9.841l3.02-2.252Zm-41.38,30.647a14.186,14.186,0,0,1-.71-5.276v-4.624c0-5.336,1.3-8.594,8.23-8.594h15.39a17.356,17.356,0,0,1,1.83.116Zm31.14-5.276c0,6.225-1.31,8.6-7.52,8.6h-16.81a7.542,7.542,0,0,1-1.25-.06l24.75-18.318a12.437,12.437,0,0,1,.83,5.157v4.624Zm-13.95,45c-14.93.059-16.62-.059-16.62-3.794,0-2.312,2.13-3.318,5.26-3.318h15.44c6.39,0,6.77,1.3,6.77,4.446h13.93v-1.366c0-7.528-1.51-12.685-17.57-12.685h-19.44c-17.57,0-18.32,5.987-18.32,13.753,0,10.552,2.38,12.924,23.34,12.924,17.94,0,19.57.238,19.57,3.972,0,3.318-3.02,3.616-5.96,3.616H1026.2c-4.01,0-5.95-.357-6.02-4.919h-13.92v2.964c0,9.305,5.08,11.557,17.75,11.557h16.87c18.51,0,22.65-1.9,22.65-13.456C1063.53,341.731,1058.51,340.485,1036.87,340.544Zm-87.095-5.573h18.673v32.25h13.144v-32.25h18.468V324.3H949.775v10.669ZM794.877,324.3H759.06v42.919H772.2V356.432h26.106c9.3,0,12.077-7.351,12.077-13.754V339C810.386,330.585,807.367,324.3,794.877,324.3Zm2.012,16.894c0,2.55-1.183,4.565-4.262,4.565H772.2v-10.79h19.3c3.967,0,5.388,1.66,5.388,4.565v1.66Zm9.827-36.813H772.2v-6.877h34.513v-8.894H772.2v-6.877h34.513v-9.957H759.06V314.7h47.656V304.383Zm42.85,19.919H836.422v42.919h42.685V356.2H849.566V324.3Zm90.5-1.6-3.967,2.9c-3.078-1.3-6.986-1.779-11.661-1.779H903.358c-11.84,0-18.885,2.963-18.885,15.533v12.8c0,4.386.829,7.588,2.487,9.841l-3.079,2.252,3.849,4.565,3.967-2.964c3.019,1.363,6.986,1.836,11.661,1.836h21.077c11.84,0,18.885-2.963,18.885-15.53v-12.8c0-4.33-.829-7.529-2.428-9.841l3.019-2.253Zm-41.38,30.648a14.3,14.3,0,0,1-.71-5.276v-4.625c0-5.335,1.3-8.594,8.228-8.594h15.391a17.442,17.442,0,0,1,1.836.117Zm31.14-5.276c0,6.225-1.3,8.6-7.521,8.6H905.491a7.615,7.615,0,0,1-1.245-.059l24.747-18.318a12.419,12.419,0,0,1,.83,5.156v4.625Zm-115.23,19.148h13.144V324.3H814.593v42.919Z" transform="translate(-624 -270.188)"/>
</svg>
