<svg xmlns="http://www.w3.org/2000/svg" width="150" height="30" viewBox="0 0 560 98.625"><path class="cls-1" fill="#fce200" fill-rule="evenodd" d="M109.49 33.127h-.118L98.478 1.59h-12.2L75.385 33.127h-.115L66.152 1.59H53.306l13.913 42.922h15.1l10.006-28.338h.119l10 28.338h15.093l13.916-42.919h-12.846zm162.245 11.385h13.143V12.258h18.469V3.137l22.428 26.434v14.941h13.143V29.571L362.656 1.59H346.79l-14.445 17.545L317.9 1.59h-64.64v10.668h18.472v32.254zM0 12.258h18.469v32.254h13.143V12.258h18.469V1.59H0v10.668zm248.906 32.254V1.59h-13.141v31.18h-.118L210.958 1.59h-20.365v42.922h13.144V13.326h.119l24.685 31.186h20.365zM560 11.547V1.59h-47.66v42.922H560V34.195h-34.51v-6.877H560v-8.894h-34.51v-6.877H560zM491.6 32.77h-.12L466.79 1.59h-20.37v42.922h13.15V13.326h.12l24.68 31.183h20.37V1.59H491.6v31.18zM437.06-.011l-3.97 2.9c-3.08-1.3-6.98-1.779-11.66-1.779h-21.08c-11.84 0-18.88 2.964-18.88 15.533v12.809c0 4.386.83 7.588 2.49 9.84l-3.08 2.253 3.85 4.565 3.96-2.964c3.02 1.363 6.99 1.836 11.66 1.836h21.08c11.84 0 18.89-2.964 18.89-15.53V16.647c0-4.329-.83-7.529-2.43-9.841l3.02-2.252zm-41.38 30.647a14.186 14.186 0 0 1-.71-5.276v-4.624c0-5.336 1.3-8.594 8.23-8.594h15.39a17.356 17.356 0 0 1 1.83.116zm31.14-5.276c0 6.225-1.31 8.6-7.52 8.6h-16.81a7.542 7.542 0 0 1-1.25-.06l24.75-18.318a12.437 12.437 0 0 1 .83 5.157v4.624zm-13.95 45c-14.93.059-16.62-.059-16.62-3.794 0-2.312 2.13-3.318 5.26-3.318h15.44c6.39 0 6.77 1.3 6.77 4.446h13.93v-1.366c0-7.528-1.51-12.685-17.57-12.685h-19.44c-17.57 0-18.32 5.987-18.32 13.753 0 10.552 2.38 12.924 23.34 12.924 17.94 0 19.57.238 19.57 3.972 0 3.318-3.02 3.616-5.96 3.616H402.2c-4.01 0-5.95-.357-6.02-4.919h-13.92v2.964c0 9.305 5.08 11.557 17.75 11.557h16.87c18.51 0 22.65-1.9 22.65-13.456 0-12.511-5.02-13.757-26.66-13.698zm-87.095-5.573h18.673v32.25h13.144v-32.25h18.468V54.112h-50.285v10.669zM170.877 54.112H135.06v42.919h13.14V86.244h26.106c9.3 0 12.077-7.351 12.077-13.754v-3.678c.003-8.415-3.016-14.7-15.506-14.7zm2.012 16.894c0 2.55-1.183 4.565-4.262 4.565H148.2v-10.79h19.3c3.967 0 5.388 1.66 5.388 4.565v1.66zm9.827-36.813H148.2v-6.877h34.513v-8.894H148.2v-6.877h34.513V1.588H135.06v42.924h47.656V34.195zm42.85 19.919h-13.144v42.919h42.685V86.012h-29.541v-31.9zm90.5-1.6l-3.967 2.9c-3.078-1.3-6.986-1.779-11.661-1.779h-21.08c-11.84 0-18.885 2.963-18.885 15.533v12.8c0 4.386.829 7.588 2.487 9.841l-3.079 2.252 3.849 4.565 3.967-2.964c3.019 1.363 6.986 1.836 11.661 1.836h21.077c11.84 0 18.885-2.963 18.885-15.53v-12.8c0-4.33-.829-7.529-2.428-9.841l3.019-2.253zm-41.38 30.648a14.3 14.3 0 0 1-.71-5.276v-4.625c0-5.335 1.3-8.594 8.228-8.594h15.391a17.442 17.442 0 0 1 1.836.117zm31.14-5.276c0 6.225-1.3 8.6-7.521 8.6h-16.814a7.615 7.615 0 0 1-1.245-.059l24.747-18.318a12.419 12.419 0 0 1 .83 5.156v4.625zm-115.23 19.148h13.144v-42.92h-13.147v42.919z"/></svg>